<svg xmlns="http://www.w3.org/2000/svg" viewBox="0 0 1200 630">
  <defs>
    <linearGradient id="bg" x1="0" y1="0" x2="1" y2="1">
      <stop offset="0%" stop-color="#0d1524"/>
      <stop offset="100%" stop-color="#060a14"/>
    </linearGradient>
    <linearGradient id="line" x1="0" y1="0" x2="1" y2="0">
      <stop offset="0%" stop-color="#2563eb"/>
      <stop offset="100%" stop-color="#60a5fa"/>
    </linearGradient>
  </defs>
  <rect width="1200" height="630" fill="url(#bg)"/>
  <!-- grid -->
  <line x1="0" y1="315" x2="1200" y2="315" stroke="rgba(99,155,255,.05)" stroke-width="1"/>
  <line x1="600" y1="0" x2="600" y2="630" stroke="rgba(99,155,255,.05)" stroke-width="1"/>
  <!-- Chart area -->
  <path d="M100,450 L280,300 L420,360 L600,180 L780,240 L960,200 L1100,215 L1100,520 L100,520 Z"
        fill="rgba(59,130,246,.08)"/>
  <polyline points="100,450 280,300 420,360 600,180 780,240 960,200 1100,215"
            stroke="url(#line)" stroke-width="10" stroke-linecap="round" stroke-linejoin="round" fill="none"/>
  <circle cx="600" cy="180" r="16" fill="#3b82f6" opacity="0.8"/>
  <circle cx="600" cy="180" r="8" fill="#60a5fa"/>
  <line x1="90" y1="522" x2="1110" y2="522" stroke="rgba(99,155,255,.3)" stroke-width="4" stroke-linecap="round"/>
  <!-- Wordmark -->
  <text x="100" y="100" font-family="Georgia,serif" font-size="52" font-weight="400" fill="#eef2ff">Retirement</text>
  <text x="100" y="100" font-family="Georgia,serif" font-size="52" font-weight="400" fill="#eef2ff">
    <tspan font-style="italic" fill="#60a5fa">Planner</tspan>
  </text>
  <text x="100" y="100" font-family="Georgia,serif" font-size="52" font-weight="400" fill="#eef2ff">Retirement<tspan font-style="italic" fill="#60a5fa">Planner</tspan></text>
  <text x="100" y="142" font-family="Arial,sans-serif" font-size="18" fill="rgba(140,180,240,.6)" letter-spacing="2">US · INDIA · CROSS-BORDER RETIREMENT PLANNING</text>
</svg>